<?xml version="1.0" encoding="UTF-8"?>
<svg id="Layer_2" xmlns="http://www.w3.org/2000/svg" viewBox="0 0 480.51 686.54">
  <defs>
    <style>
      .cls-1 {
        fill: #161818;
        stroke: #231f20;
        stroke-miterlimit: 10;
      }

      .cls-2 {
        fill: #fff;
      }
    </style>
  </defs>
  <g id="Layer_1-2" data-name="Layer_1">
    <g>
      <path class="cls-1" d="M480.01,18.72v649.11c0,10.06-8.15,18.21-18.21,18.21H18.71c-10.06,0-18.21-8.15-18.21-18.21V18.72C.5,8.66,8.65.5,18.71.5h443.09c10.06,0,18.21,8.16,18.21,18.22Z"/>
      <path class="cls-2" d="M301.74,242.23l178.27,45.03v-73.77l-266.72-65.97c-35.06-15.07-76.05-23.79-114.23-23.79-33.53,0-67.77,4.75-98.56,15.31v279.45c5.68,1.79,11.64,3.48,17.9,5.06l41.89,10.53,92.54,23.26c40.69,10.06,50.86,33.07,50.86,53.92,0,34.51-34.15,68.3-95.91,68.3s-88.1-25.06-107.28-49.23v120.1c29.49,9.6,65.14,15.41,107.28,15.41,143.87,0,215.08-69.74,215.08-163.21,0-1.7-.02-3.4-.07-5.11l157.22,39.46v-128.18l-178.43-159.83-8.67-7.77.56-1.06,8.27,2.09ZM405.08,436.38l-.57,1.07-164.26-66.37c-2.32-.79-4.62-1.57-6.87-2.32-13.69-5.92-29.32-10.97-47.13-14.96l-99.55-22.28c-37.78-8.63-81.38-20.14-81.38-56.08s30.52-61.12,85.74-61.12c32.95,0,55.24,6.76,71.73,16.26,9.82,5.66,17.58,12.29,24.32,19.06l46.41,39.76,171.56,146.98ZM393.89.5h-184.07c.47,1.29,1.7,2.79,3.83,4.58l266.36,189.09v-114.44L393.89.5Z"/>
    </g>
  </g>
</svg>